<?xml version="1.0" standalone="no"?>
<!DOCTYPE svg PUBLIC "-//W3C//DTD SVG 20010904//EN"
 "http://www.w3.org/TR/2001/REC-SVG-20010904/DTD/svg10.dtd">
<svg version="1.0" xmlns="http://www.w3.org/2000/svg"
 width="224.000000pt" height="224.000000pt" viewBox="0 0 224.000000 224.000000"
 preserveAspectRatio="xMidYMid meet">
<metadata>
Created by potrace 1.11, written by Peter Selinger 2001-2013
</metadata>
<g transform="translate(0.000000,224.000000) scale(0.100000,-0.100000)"
fill="#000000" stroke="none">
<path d="M697 1867 c-11 -8 -25 -46 -37 -106 -11 -52 -20 -98 -20 -103 0 -4
-7 -8 -15 -8 -27 0 -27 -25 0 -85 14 -32 23 -60 20 -63 -3 -3 -5 0 -5 7 0 7
-5 9 -11 5 -6 -3 -9 -17 -6 -30 4 -22 0 -24 -32 -25 -20 -1 -110 -5 -201 -8
-99 -4 -165 -10 -165 -16 0 -9 166 -20 355 -24 53 -1 71 -4 60 -11 -12 -8 -13
-12 -2 -19 8 -5 -48 -11 -140 -15 -84 -4 -155 -10 -157 -12 -11 -11 16 -14
150 -21 l144 -8 3 -26 3 -26 -128 -6 c-70 -4 -165 -7 -210 -7 -46 0 -83 -4
-83 -9 0 -13 91 -21 248 -21 116 0 142 -3 142 -14 0 -35 -29 -46 -126 -46 -52
0 -94 -4 -94 -9 0 -9 81 -21 152 -21 l46 0 -11 -30 -11 -30 -87 0 c-102 0
-179 -9 -179 -21 0 -5 51 -9 114 -9 63 0 121 -2 129 -5 12 -5 11 -17 -4 -83
-29 -121 -23 -161 29 -176 64 -18 256 -56 287 -56 22 0 47 -8 62 -20 34 -27
85 -26 118 3 24 20 34 22 83 16 32 -3 98 -18 147 -33 50 -15 139 -37 198 -48
117 -24 155 -19 171 18 5 12 25 27 43 33 41 15 69 65 59 106 -4 15 -19 39 -34
53 -15 15 -25 32 -22 37 2 6 6 42 9 80 l6 70 48 3 c39 3 48 6 45 20 -3 14 -19
18 -93 23 -50 3 -71 6 -47 7 37 2 42 5 42 27 0 22 4 24 58 27 43 2 57 7 57 18
0 11 -15 16 -62 18 l-62 3 10 29 c10 27 14 29 72 32 50 2 62 6 65 21 3 15 -8
17 -110 19 -90 1 -101 3 -53 7 53 5 60 9 63 29 3 20 9 22 57 22 36 0 55 4 58
14 8 21 -2 26 -50 26 -42 0 -43 1 -37 28 10 41 12 42 58 42 23 0 46 3 49 7 14
13 -17 33 -50 33 -33 0 -35 1 -28 28 17 68 24 135 15 157 -10 25 -11 26 -175
66 -73 18 -123 23 -261 25 -151 2 -180 5 -250 27 -102 32 -313 77 -362 77 -21
0 -46 -6 -55 -13z m101 -242 c-3 -3 -9 2 -12 12 -6 14 -5 15 5 6 7 -7 10 -15
7 -18z m448 14 c72 -13 151 -51 206 -98 l42 -36 -279 -5 c-242 -4 -280 -7
-283 -20 -1 -9 9 -42 23 -73 l25 -57 298 0 298 0 11 -30 11 -30 -289 0 c-329
0 -308 7 -264 -87 l24 -53 261 0 c143 0 260 -3 260 -7 0 -5 -3 -18 -6 -30 l-6
-23 -278 0 -277 0 -88 202 -87 203 48 43 c58 53 106 78 182 96 72 18 94 19
168 5z m-578 -54 c-3 -3 -9 2 -12 12 -6 14 -5 15 5 6 7 -7 10 -15 7 -18z m146
9 c3 -8 2 -12 -4 -9 -6 3 -10 10 -10 16 0 14 7 11 14 -7z m96 -351 l83 -193
284 0 284 0 -16 -30 -16 -30 -224 0 -224 0 -20 -29 c-12 -16 -21 -36 -21 -45
0 -23 27 -20 42 4 12 19 23 20 213 20 l200 -1 -35 -29 c-19 -17 -69 -47 -109
-68 -71 -35 -80 -37 -174 -37 -84 0 -100 3 -108 18 -23 40 -52 57 -99 57 -41
0 -50 5 -86 43 -42 43 -84 100 -84 112 0 3 25 3 55 0 l55 -7 0 31 0 31 -70 0
c-63 0 -70 2 -70 20 0 17 7 20 45 20 43 0 45 1 45 29 l0 30 -53 -6 c-49 -5
-53 -4 -53 16 0 16 6 21 28 21 24 0 28 4 28 29 0 25 -3 28 -25 23 -21 -4 -25
-1 -25 22 0 34 51 160 60 149 4 -4 45 -95 90 -200z m634 185 c9 -12 16 -26 16
-30 0 -5 -124 -8 -275 -8 l-274 0 -16 30 -16 30 275 0 c273 0 275 0 290 -22z
m61 -208 l0 -30 -255 0 -256 0 -11 30 -11 30 266 0 267 0 0 -30z m-938 -36
c-3 -3 -12 -4 -19 -1 -8 3 -5 6 6 6 11 1 17 -2 13 -5z m-34 -51 c-7 -2 -19 -2
-25 0 -7 3 -2 5 12 5 14 0 19 -2 13 -5z m44 1 c-3 -3 -12 -4 -19 -1 -8 3 -5 6
6 6 11 1 17 -2 13 -5z m918 -185 c9 -17 15 -33 13 -35 -3 -2 -12 12 -21 31
-21 43 -13 47 8 4z m-40 -35 c9 -15 12 -23 6 -20 -11 7 -35 46 -28 46 3 0 12
-12 22 -26z m49 -22 c3 -5 -9 -19 -27 -31 l-32 -22 27 24 c15 14 24 28 21 31
-4 3 -4 6 0 6 3 0 8 -4 11 -8z m76 -72 c11 -11 20 -27 20 -35 0 -20 -36 -55
-57 -55 -16 0 -16 1 0 13 9 6 18 27 19 46 3 29 -1 36 -22 42 -24 7 -24 7 -2 8
12 1 31 -8 42 -19z m-70 -65 c14 -19 14 -19 -2 -6 -10 7 -18 18 -18 24 0 6 1
8 3 6 1 -2 9 -13 17 -24z m-580 11 c0 -2 -8 -10 -17 -17 -16 -13 -17 -12 -4 4
13 16 21 21 21 13z m580 -75 c17 -6 19 -10 8 -10 -9 -1 -27 9 -40 22 -13 12
-17 17 -8 10 8 -7 27 -16 40 -22z"/>
<path d="M450 446 c0 -40 3 -88 6 -105 6 -28 10 -31 45 -31 35 0 39 3 39 25 0
33 11 32 32 -4 15 -28 18 -29 47 -18 l31 11 -22 23 -21 22 23 19 c26 21 32 71
11 96 -18 21 -75 36 -138 36 l-53 0 0 -74z m130 -16 c11 -7 12 -14 4 -27 -15
-24 -33 -28 -40 -9 -7 18 1 46 13 46 4 0 15 -5 23 -10z"/>
<path d="M804 474 c-21 -55 -36 -57 -28 -4 l7 40 -52 0 -51 0 0 -54 c0 -29 3
-74 6 -100 7 -46 7 -46 45 -46 36 0 39 2 39 28 l1 27 24 -28 c21 -24 31 -27
55 -22 37 8 37 12 4 46 l-25 27 36 57 c20 31 35 58 33 59 -1 2 -20 6 -40 9
-36 5 -37 5 -54 -39z"/>
<path d="M994 458 c3 -29 6 -74 6 -100 0 -44 2 -48 25 -48 21 0 25 5 25 30 0
37 6 37 42 3 l28 -27 30 29 30 29 0 -32 c0 -27 4 -32 24 -32 30 0 36 20 36
123 l0 77 -38 0 c-31 0 -41 -5 -55 -30 -10 -16 -22 -30 -27 -30 -5 0 -16 14
-25 30 -14 27 -21 30 -62 30 l-46 0 7 -52z"/>
<path d="M1300 468 c-6 -24 -18 -66 -26 -95 -18 -64 -18 -63 6 -63 11 0 20 7
20 15 0 8 5 15 10 15 6 0 10 -5 10 -11 0 -7 9 -9 24 -5 14 3 26 1 28 -5 2 -6
21 -9 44 -7 l41 3 -27 95 -27 95 -46 3 -46 3 -11 -43z m54 -84 c10 -27 7 -34
-19 -34 -28 0 -29 3 -15 31 13 23 26 24 34 3z"/>
<path d="M1474 494 c3 -9 6 -54 6 -100 l0 -85 72 3 c60 2 73 6 76 20 3 15 -2
17 -28 11 l-32 -6 4 87 3 86 -54 0 c-44 0 -52 -3 -47 -16z"/>
<path d="M1654 494 c3 -9 6 -54 6 -100 l0 -84 69 0 c54 0 70 4 75 16 9 24 8
24 -24 18 l-30 -6 0 86 0 86 -51 0 c-43 0 -50 -3 -45 -16z"/>
</g>
</svg>
